<svg width="207" height="295" viewBox="0 0 207 295" fill="none" xmlns="http://www.w3.org/2000/svg">
<mask id="path-1-outside-1_23_75" maskUnits="userSpaceOnUse" x="-1" y="-1" width="209" height="297" fill="black">
<rect fill="white" x="-1" y="-1" width="209" height="297"/>
<path d="M195.699 11.3535C202.941 14.1615 206.562 18.9645 206.562 25.7627C206.562 26.945 206.266 29.014 205.675 31.9697C203.606 40.2458 199.763 44.3838 194.147 44.3838C192.817 44.3838 191.192 44.0143 189.271 43.2754C170.502 36.0339 152.989 32.4131 136.732 32.4131C106.88 32.4131 91.9531 48.4479 91.9531 80.5176V104.902H168.654C173.679 104.902 177.226 106.159 179.295 108.671C181.512 111.035 182.62 115.1 182.62 120.863C182.62 126.627 181.512 130.765 179.295 133.277C177.226 135.642 173.679 136.824 168.654 136.824H91.9531V279.808C91.9531 284.98 90.6969 288.675 88.1846 290.892C85.82 293.108 81.6081 294.217 75.5488 294.217H75.1055C69.0462 294.217 64.7604 293.108 62.248 290.892C59.8835 288.675 58.7012 284.98 58.7012 279.808V136.824H14.8086C9.78385 136.824 6.16309 135.642 3.94629 133.277C1.87728 130.765 0.842773 126.627 0.842773 120.863C0.842773 115.1 1.87728 111.035 3.94629 108.671C6.16309 106.159 9.78385 104.902 14.8086 104.902H58.7012V77.6357C58.7012 53.251 65.4993 34.2604 79.0957 20.6641C92.8398 6.91992 112.052 0.0478516 136.732 0.0478516C156.536 0.0478516 176.191 3.81641 195.699 11.3535Z"/>
</mask>
<path d="M195.699 11.3535L196.061 10.4212L196.06 10.4207L195.699 11.3535ZM205.675 31.9697L206.645 32.2123L206.651 32.1892L206.655 32.1658L205.675 31.9697ZM189.271 43.2754L188.911 44.2084L188.912 44.2087L189.271 43.2754ZM91.9531 104.902H90.9531V105.902H91.9531V104.902ZM179.295 108.671L178.523 109.307L178.543 109.331L178.565 109.355L179.295 108.671ZM179.295 133.277L178.545 132.616L178.542 132.619L179.295 133.277ZM91.9531 136.824V135.824H90.9531V136.824H91.9531ZM88.1846 290.892L87.5229 290.142L87.5116 290.152L87.5006 290.162L88.1846 290.892ZM62.248 290.892L61.5641 291.621L61.5751 291.631L61.5864 291.641L62.248 290.892ZM58.7012 136.824H59.7012V135.824H58.7012V136.824ZM3.94629 133.277L3.17436 133.913L3.19478 133.938L3.21675 133.961L3.94629 133.277ZM3.94629 108.671L3.19645 108.009L3.19371 108.012L3.94629 108.671ZM58.7012 104.902V105.902H59.7012V104.902H58.7012ZM79.0957 20.6641L79.8028 21.3712L79.0957 20.6641ZM195.338 12.2859C198.835 13.6418 201.377 15.4484 203.047 17.6637C204.71 19.8696 205.562 22.5512 205.562 25.7627H207.562C207.562 22.176 206.602 19.057 204.644 16.4598C202.694 13.8721 199.805 11.8731 196.061 10.4212L195.338 12.2859ZM205.562 25.7627C205.562 26.8339 205.286 28.8133 204.694 31.7736L206.655 32.1658C207.246 29.2147 207.562 27.0561 207.562 25.7627H205.562ZM204.705 31.7272C203.692 35.7784 202.271 38.7018 200.508 40.5998C198.775 42.4663 196.676 43.3838 194.147 43.3838V45.3838C197.235 45.3838 199.865 44.2322 201.974 41.9607C204.054 39.7208 205.589 36.4371 206.645 32.2123L204.705 31.7272ZM194.147 43.3838C192.988 43.3838 191.492 43.0584 189.629 42.342L188.912 44.2087C190.891 44.9702 192.646 45.3838 194.147 45.3838V43.3838ZM189.63 42.3424C170.773 35.0667 153.137 31.4131 136.732 31.4131V33.4131C152.84 33.4131 170.23 37.001 188.911 44.2084L189.63 42.3424ZM136.732 31.4131C121.633 31.4131 110.129 35.4717 102.416 43.7579C94.7152 52.0305 90.9531 64.3457 90.9531 80.5176H92.9531C92.9531 64.6198 96.6543 52.8827 103.88 45.1206C111.093 37.3719 121.979 33.4131 136.732 33.4131V31.4131ZM90.9531 80.5176V104.902H92.9531V80.5176H90.9531ZM91.9531 105.902H168.654V103.902H91.9531V105.902ZM168.654 105.902C173.544 105.902 176.728 107.127 178.523 109.307L180.067 108.035C177.724 105.19 173.814 103.902 168.654 103.902V105.902ZM178.565 109.355C180.516 111.435 181.62 115.174 181.62 120.863H183.62C183.62 115.025 182.508 110.636 180.024 107.987L178.565 109.355ZM181.62 120.863C181.62 126.544 180.519 130.378 178.545 132.616L180.045 133.939C182.504 131.151 183.62 126.71 183.62 120.863H181.62ZM178.542 132.619C176.752 134.665 173.561 135.824 168.654 135.824V137.824C173.798 137.824 177.7 136.619 180.048 133.936L178.542 132.619ZM168.654 135.824H91.9531V137.824H168.654V135.824ZM90.9531 136.824V279.808H92.9531V136.824H90.9531ZM90.9531 279.808C90.9531 284.849 89.7261 288.198 87.5229 290.142L88.8462 291.641C91.6678 289.152 92.9531 285.112 92.9531 279.808H90.9531ZM87.5006 290.162C85.427 292.106 81.5503 293.217 75.5488 293.217V295.217C81.6658 295.217 86.2129 294.111 88.8685 291.621L87.5006 290.162ZM75.5488 293.217H75.1055V295.217H75.5488V293.217ZM75.1055 293.217C69.1135 293.217 65.1403 292.11 62.9097 290.142L61.5864 291.641C64.3806 294.107 68.9789 295.217 75.1055 295.217V293.217ZM62.932 290.162C60.8619 288.221 59.7012 284.864 59.7012 279.808H57.7012C57.7012 285.096 58.905 289.128 61.5641 291.621L62.932 290.162ZM59.7012 279.808V136.824H57.7012V279.808H59.7012ZM58.7012 135.824H14.8086V137.824H58.7012V135.824ZM14.8086 135.824C9.91046 135.824 6.62104 134.668 4.67583 132.593L3.21675 133.961C5.70514 136.616 9.65725 137.824 14.8086 137.824V135.824ZM4.71822 132.642C2.87368 130.402 1.84277 126.555 1.84277 120.863H-0.157227C-0.157227 126.699 0.880875 131.128 3.17436 133.913L4.71822 132.642ZM1.84277 120.863C1.84277 115.162 2.87735 111.411 4.69886 109.329L3.19371 108.012C0.877213 110.66 -0.157227 115.037 -0.157227 120.863H1.84277ZM4.69613 109.333C6.64482 107.124 9.92624 105.902 14.8086 105.902V103.902C9.64147 103.902 5.68135 105.193 3.19645 108.009L4.69613 109.333ZM14.8086 105.902H58.7012V103.902H14.8086V105.902ZM59.7012 104.902V77.6357H57.7012V104.902H59.7012ZM59.7012 77.6357C59.7012 53.4414 66.441 34.733 79.8028 21.3712L78.3886 19.957C64.5577 33.7878 57.7012 53.0605 57.7012 77.6357H59.7012ZM79.8028 21.3712C93.3122 7.86176 112.242 1.04785 136.732 1.04785V-0.952148C111.862 -0.952148 92.3675 5.97808 78.3886 19.957L79.8028 21.3712ZM136.732 1.04785C156.406 1.04785 175.939 4.79111 195.339 12.2863L196.06 10.4207C176.443 2.84171 156.666 -0.952148 136.732 -0.952148V1.04785Z" fill="#363636" mask="url(#path-1-outside-1_23_75)"/>
</svg>
