<svg width="76" height="76" viewBox="0 0 76 76" fill="none" xmlns="http://www.w3.org/2000/svg">
<path d="M49.765 46.6913C47.1197 46.6913 44.645 46.3073 42.341 45.5393C40.1223 44.686 38.0317 43.7046 36.069 42.5953C34.1917 41.4006 32.2717 40.4193 30.309 39.6513C28.3463 38.798 26.3837 38.3713 24.421 38.3713C22.2023 38.3713 20.069 38.8833 18.021 39.9073C15.973 40.9313 13.7117 42.5953 11.237 44.8993L5.60501 37.8593C8.84767 34.6166 11.9623 32.1846 14.949 30.5633C18.021 28.8566 21.1357 28.0033 24.293 28.0033C26.853 28.0033 29.2423 28.43 31.461 29.2833C33.6797 30.1366 35.7277 31.118 37.605 32.2273C39.5677 33.3366 41.5303 34.318 43.493 35.1713C45.541 36.0246 47.6317 36.4513 49.765 36.4513C51.7277 36.4513 53.5197 36.11 55.141 35.4273C56.8477 34.6593 58.5117 33.678 60.133 32.4833C61.7543 31.2033 63.333 29.838 64.869 28.3873L70.629 35.4273C66.6183 39.2673 62.9917 42.126 59.749 44.0033C56.5063 45.7953 53.1783 46.6913 49.765 46.6913Z" fill="#F4F4F4"/>
<path d="M28.1649 74.7052C19.2446 72.315 11.5001 66.7583 6.37871 59.0735C1.25734 51.3888 -0.890306 42.1021 0.337164 32.9492C1.56464 23.7962 6.08324 15.4035 13.0484 9.33963C20.0135 3.2758 28.9485 -0.0441049 38.1833 0.000440415C47.4181 0.0449857 56.3206 3.45093 63.2269 9.58167C70.1333 15.7124 74.5707 24.1484 75.7098 33.3127C76.8489 42.4771 74.6118 51.7427 69.4165 59.3776C64.2212 67.0126 56.4234 72.4943 47.4806 74.7984L44.7822 64.3249C51.1798 62.6766 56.7582 58.7551 60.4748 53.2932C64.1914 47.8312 65.7918 41.2028 64.9769 34.6468C64.162 28.0908 60.9875 22.0559 56.0469 17.6701C51.1062 13.2842 44.7375 10.8477 38.1311 10.8158C31.5247 10.784 25.1328 13.159 20.1501 17.4969C15.1673 21.8349 11.9348 27.8389 11.0567 34.3867C10.1786 40.9346 11.715 47.5781 15.3787 53.0756C19.0425 58.5731 24.5828 62.5483 30.9641 64.2582L28.1649 74.7052Z" fill="#FF7315"/>
</svg>
